# xmcd
# 
# Track frame offsets:
#     150
#     21348
#     38813
#     57742
#     69292
#     100398
#     125001
#     140777
#     147123
#     163566
#     178168
#     194124
#     217713
#     233717
#     257698
# 
# Disc length: 3785
# 
# Revision: 0
# Processed by: cddbd v1.5.2PL0 Copyright (c) Steve Scherf et al.
# Submitted via: fre:ac v1.0.31
# 
DISCID=e50ec70f
DTITLE=Various Artist - Sean Carney's Blues For A Cure Blues Cures Studio Jam, Vol. 7
DYEAR=2015
DGENRE=Blues
TTITLE0=Sean Carney and Jonn Richardson - Sugar Sweet
TTITLE1=Billy The Kid and The Regulators - I Can't Change
TTITLE2=Gina Sicilia and JP Soars - Poverty
TTITLE3=Jonn Richardson and JP Soars - Ain't Much More
TTITLE4=Tonky dle la Pena, Sean Carney and Jonn Richardson - Big Boss Man
TTITLE5=JP Soars, Sean Carney and Jonn Richardson - Keep On Barking
TTITLE6=Dani Franchi Band and Sean Carney - Everything's Gonna Be Alright
TTITLE7=JP Soars And The Red Hots - Dark Eyes
TTITLE8=Gina Sicilia Band and James Dougherty - Members Only
TTITLE9=Sean Carney and The Dani Franchi Band - Phonebooth
TTITLE10=Billy The Kid and The Regulators - Ain't Gonna Prove Nuthin'
TTITLE11=Jonn Richardson, Sean Carney and JP Soars - I'm Gonna Hit That Highway
TTITLE12=JP Soars and Gina SIcilia - See The Light
TTITLE13=Tonky dle la Pena, JP Soars, Sean Carney and Jonn Richardson - Long Leg Woman
TTITLE14=Jimmy Thackery and The Drivers - Sleepwalk
EXTD=
EXTT0=
EXTT1=
EXTT2=
EXTT3=
EXTT4=
EXTT5=
EXTT6=
EXTT7=
EXTT8=
EXTT9=
EXTT10=
EXTT11=
EXTT12=
EXTT13=
EXTT14=
PLAYORDER=
